<?xml version="1.0" standalone="no"?>
<!DOCTYPE svg PUBLIC "-//W3C//DTD SVG 20010904//EN"
 "http://www.w3.org/TR/2001/REC-SVG-20010904/DTD/svg10.dtd">
<svg version="1.0" xmlns="http://www.w3.org/2000/svg"
 width="1588.000000pt" height="1513.000000pt" viewBox="0 0 1588.000000 1513.000000"
 preserveAspectRatio="xMidYMid meet">
<metadata>
Created by potrace 1.15, written by Peter Selinger 2001-2017
</metadata>
<g transform="translate(0.000000,1513.000000) scale(0.100000,-0.100000)"
fill="#000000" stroke="none">
<path d="M10 7565 l0 -7565 7930 0 7930 0 0 7565 0 7565 -7930 0 -7930 0 0
-7565z m15850 0 l0 -7545 -7920 0 -7920 0 0 7545 0 7545 7920 0 7920 0 0
-7545z"/>
<path d="M7416 13183 c-9 -35 -18 -103 -25 -209 l-8 -108 -118 -230 c-123
-240 -189 -357 -232 -415 l-26 -34 -18 24 c-32 41 -69 173 -69 246 0 101 15
136 87 206 64 62 103 117 83 117 -6 0 -33 -11 -60 -25 -28 -14 -50 -22 -50
-19 0 6 53 184 66 224 3 8 -8 2 -25 -14 -40 -38 -114 -190 -141 -286 -52 -190
-47 -348 16 -499 20 -47 38 -95 40 -106 3 -11 -11 -72 -31 -135 -102 -326 -34
-559 285 -975 43 -56 85 -115 94 -132 24 -47 20 -96 -15 -174 -42 -96 -93
-257 -114 -359 -10 -47 -21 -89 -26 -94 -12 -14 -142 83 -336 250 -39 35 -107
88 -150 120 -95 69 -150 120 -169 156 -21 40 -17 136 8 209 18 54 22 87 22
209 0 80 -3 213 -8 296 -8 139 -7 155 12 215 76 235 144 580 115 579 -15 -1
-76 -158 -108 -276 -34 -130 -53 -184 -65 -184 -4 0 -20 28 -36 63 -43 94 -41
174 8 292 36 88 60 205 42 205 -5 0 -20 -30 -33 -67 -24 -70 -55 -123 -72
-123 -5 0 -9 30 -10 68 0 37 -4 90 -8 117 l-8 50 -19 -40 c-32 -68 -25 -285
20 -579 63 -421 69 -610 21 -747 -17 -48 -61 -119 -73 -119 -17 0 -123 242
-142 322 -38 163 -76 514 -87 793 -7 194 3 290 47 466 34 133 49 235 33 226
-6 -4 -13 -19 -16 -34 -8 -38 -46 -127 -53 -121 -2 3 -14 86 -25 184 -11 98
-22 180 -24 182 -10 11 -15 -39 -35 -348 -11 -178 -22 -326 -24 -328 -8 -7
-54 64 -64 98 -6 19 -13 90 -16 157 -8 170 -18 263 -26 258 -4 -3 -11 -66 -15
-140 -4 -74 -10 -135 -14 -135 -3 0 -29 20 -58 45 -28 25 -54 45 -57 45 -8 0
28 -83 98 -220 117 -231 156 -355 175 -555 13 -132 26 -529 18 -549 -6 -14
-15 -13 -79 10 -95 34 -223 98 -271 136 -20 16 -49 51 -64 76 -35 60 -35 131
1 303 45 219 33 361 -45 531 -42 92 -68 194 -69 268 0 69 -19 170 -40 215
l-18 40 -1 -133 c-1 -86 -5 -131 -11 -127 -15 9 -90 121 -127 190 -27 49 -33
55 -33 34 0 -32 42 -165 71 -222 12 -23 51 -87 87 -142 112 -171 117 -186 116
-355 0 -116 -5 -164 -23 -237 -12 -51 -26 -93 -31 -93 -12 0 -65 131 -91 226
-20 68 -23 100 -21 228 2 142 1 152 -23 202 -49 100 -69 92 -40 -16 16 -59 20
-147 7 -167 -7 -10 -164 287 -219 415 -10 23 -18 31 -20 21 -2 -8 35 -134 82
-280 47 -145 97 -299 110 -343 l24 -79 -27 24 c-15 13 -35 33 -44 44 -9 11
-20 17 -23 13 -12 -11 33 -98 85 -163 60 -75 69 -97 127 -284 52 -171 87 -242
145 -302 48 -50 88 -71 250 -130 218 -80 250 -104 333 -249 93 -164 181 -258
438 -463 188 -151 212 -182 135 -171 -178 24 -531 117 -605 160 -54 31 -96 83
-125 153 -12 31 -32 74 -45 96 -23 43 -79 102 -88 94 -3 -3 11 -54 31 -113 20
-59 33 -110 30 -113 -17 -17 -192 137 -294 257 -52 62 -143 202 -184 285 -45
89 -46 91 -53 83 -17 -16 117 -307 200 -434 60 -92 207 -232 311 -296 242
-149 453 -228 829 -308 301 -65 377 -130 346 -297 -24 -132 -138 -369 -219
-456 -28 -29 -88 -72 -154 -110 -71 -40 -147 -95 -214 -154 -57 -51 -108 -94
-113 -97 -5 -3 -24 18 -43 47 -20 28 -85 102 -146 163 -129 130 -145 159 -227
394 -61 175 -134 333 -192 415 -20 27 -91 117 -158 200 -187 232 -227 299
-240 400 -11 86 -26 155 -34 155 -4 0 -13 -36 -20 -80 -8 -44 -17 -80 -21 -80
-4 0 -15 10 -23 23 -30 43 -106 122 -112 116 -9 -10 35 -119 73 -179 19 -30
64 -92 100 -138 35 -46 62 -86 58 -89 -3 -3 -68 25 -143 63 -76 38 -142 70
-148 72 -23 8 93 -92 226 -194 295 -223 401 -365 475 -634 13 -47 24 -95 24
-107 0 -21 -2 -22 -27 -11 -53 24 -507 292 -676 401 -139 89 -224 205 -295
402 -24 65 -26 85 -30 301 -3 195 -1 236 12 261 8 17 51 61 96 98 44 38 80 71
80 75 0 4 62 73 139 153 116 121 142 154 160 202 12 32 20 60 17 62 -2 2 -23
-14 -47 -36 -25 -23 -45 -35 -47 -28 -1 6 1 63 6 125 4 63 4 116 1 118 -4 2
-13 -22 -19 -53 -43 -205 -146 -371 -308 -493 -93 -69 -96 -68 -88 31 14 158
48 243 158 395 86 118 108 162 124 253 25 144 13 313 -32 451 -43 127 -47 115
-41 -105 4 -114 2 -219 -4 -245 -12 -57 -89 -240 -101 -240 -17 0 -40 73 -47
150 -6 51 -4 112 5 176 13 101 19 372 8 361 -4 -3 -22 -79 -40 -168 -19 -89
-36 -165 -40 -168 -8 -9 -30 24 -77 114 -64 124 -58 65 15 -147 l62 -183 0
-115 c-1 -95 -6 -135 -31 -230 -17 -63 -33 -127 -37 -142 -8 -36 -17 -35 -62
5 -88 77 -135 192 -159 392 -20 164 -30 204 -61 241 l-25 29 6 -170 6 -170
-26 25 c-15 14 -51 66 -80 115 -49 84 -95 141 -95 118 0 -23 34 -121 52 -153
12 -19 47 -73 78 -120 64 -97 95 -159 136 -279 29 -83 30 -85 107 -145 l79
-61 -7 -215 c-4 -118 -9 -217 -12 -220 -7 -7 -35 34 -89 131 -142 258 -248
381 -419 485 -116 70 -153 112 -186 211 -12 37 -50 125 -84 194 -34 70 -65
133 -67 140 -3 8 -8 11 -12 8 -5 -4 78 -306 100 -364 10 -26 -11 -17 -106 45
-51 34 -97 59 -104 57 -16 -5 124 -141 219 -213 99 -75 282 -199 318 -215 42
-19 34 -39 -16 -39 -47 0 -326 51 -419 77 -66 18 -95 45 -170 157 -38 57 -66
87 -98 105 l-45 26 35 -60 c18 -33 44 -79 58 -102 13 -24 20 -43 15 -43 -12 0
-61 31 -133 84 -34 25 -66 46 -72 46 -16 0 25 -61 77 -112 142 -141 427 -236
821 -273 l71 -7 35 -61 c20 -34 52 -94 72 -133 39 -80 112 -282 103 -290 -7
-7 -95 26 -232 87 -114 51 -125 59 -210 146 -57 58 -109 101 -143 118 -118 58
-367 125 -462 124 -43 0 -39 -2 70 -43 156 -58 254 -105 342 -162 l73 -47 -30
-9 c-16 -5 -109 -10 -205 -11 -170 -2 -176 -1 -217 23 -24 15 -75 67 -121 125
-77 97 -162 187 -162 172 0 -5 27 -54 60 -109 57 -97 67 -118 55 -118 -3 0
-49 27 -101 60 -184 116 -214 122 -121 23 152 -161 333 -240 592 -258 200 -13
335 -39 415 -80 51 -26 110 -72 110 -85 0 -12 -67 -30 -110 -30 -19 0 -59 11
-89 25 -47 22 -160 48 -170 40 -2 -2 25 -17 60 -33 35 -16 70 -36 78 -45 12
-16 3 -17 -125 -18 -77 -1 -166 -4 -199 -8 -56 -7 -58 -8 -25 -14 19 -3 123
-16 230 -28 225 -24 335 -22 425 11 73 26 136 23 215 -13 83 -37 113 -76 169
-215 27 -67 64 -147 82 -178 37 -61 115 -138 167 -162 17 -9 32 -19 32 -24 0
-12 -146 -9 -338 7 -428 36 -476 56 -849 340 -129 99 -230 155 -368 205 -151
55 -196 83 -309 190 -58 55 -108 100 -111 100 -11 0 29 -59 88 -132 32 -39 55
-73 53 -76 -8 -8 -96 17 -161 46 -86 37 -143 77 -197 135 -30 32 -48 46 -48
36 0 -26 34 -62 122 -128 103 -78 223 -136 407 -196 79 -25 163 -54 185 -63
53 -20 120 -62 112 -69 -10 -10 -154 -2 -235 12 -42 8 -130 25 -196 39 -66 14
-131 26 -145 26 -23 -1 -23 -2 10 -20 52 -29 233 -86 329 -104 48 -9 136 -16
207 -16 153 0 171 -7 272 -102 119 -110 185 -155 342 -231 l145 -70 -40 -15
c-58 -21 -268 -20 -369 2 -132 29 -237 73 -540 226 -284 143 -415 196 -545
220 -58 11 -189 16 -197 7 -3 -2 49 -24 116 -47 66 -24 123 -46 125 -50 3 -4
-14 -10 -38 -14 -167 -26 -287 -51 -287 -59 0 -6 31 -7 83 -3 246 18 371 18
436 1 94 -24 365 -166 437 -229 l26 -22 -199 -38 c-270 -53 -304 -52 -513 11
-218 67 -321 88 -305 63 3 -5 14 -10 24 -10 10 0 49 -13 87 -28 38 -16 118
-46 178 -66 60 -21 119 -44 130 -51 19 -14 19 -14 -5 -24 -14 -5 -86 -19 -160
-30 -73 -12 -156 -28 -184 -35 l-50 -13 39 -8 c21 -4 106 -5 190 -2 117 4 171
11 241 30 267 73 324 87 412 98 148 18 260 8 473 -46 164 -41 198 -47 295 -47
104 0 120 3 302 55 302 88 376 91 672 31 151 -31 194 -47 314 -114 134 -74
399 -266 393 -285 -1 -5 -62 -19 -135 -32 l-133 -23 -45 51 c-48 52 -85 75
-215 128 -42 18 -97 50 -122 72 -25 22 -50 38 -55 35 -5 -3 -6 -27 -3 -52 4
-42 3 -46 -14 -41 -45 14 -224 57 -235 57 -8 0 -9 -4 0 -13 23 -29 123 -68
271 -107 163 -43 217 -65 263 -108 51 -48 39 -56 -78 -49 -128 8 -250 34 -465
98 -91 27 -232 64 -315 83 -82 19 -195 49 -250 66 -55 17 -120 36 -145 42 -55
13 -469 12 -502 -1 -16 -7 24 -10 127 -10 169 -1 279 -12 406 -42 148 -34 144
-42 -37 -68 -241 -34 -233 -38 107 -50 283 -11 366 -20 492 -52 84 -21 184
-67 206 -93 20 -24 -22 -29 -187 -22 -392 16 -563 19 -575 7 -8 -8 7 -11 59
-11 39 0 163 -13 277 -30 277 -40 404 -46 537 -26 90 14 123 14 231 4 116 -10
139 -10 288 12 339 48 490 2 546 -165 18 -55 20 -82 17 -347 -4 -418 9 -489
155 -816 47 -106 83 -195 80 -199 -10 -9 -89 24 -142 59 -47 31 -85 75 -132
156 -71 121 -227 572 -304 881 -11 44 -19 56 -39 61 -14 4 -73 42 -131 84 -95
68 -224 134 -237 121 -3 -3 -3 -6 -1 -8 173 -116 217 -154 268 -226 22 -32 52
-92 66 -134 27 -83 30 -97 16 -97 -6 0 -97 52 -203 115 -135 82 -212 135 -258
179 -58 56 -170 128 -170 109 0 -4 21 -33 46 -65 25 -32 41 -58 35 -58 -5 0
-154 53 -330 118 -176 66 -317 114 -314 108 11 -17 51 -47 132 -99 42 -26 82
-54 91 -63 16 -16 -10 -16 -225 2 -57 4 -59 4 -35 -10 14 -9 54 -25 90 -36 57
-19 80 -21 185 -15 136 7 202 -3 350 -56 200 -70 392 -186 521 -314 72 -70
123 -140 112 -151 -6 -5 -125 24 -213 53 -86 27 -233 98 -330 158 -84 52 -285
148 -293 141 -11 -11 99 -102 220 -183 65 -43 118 -81 118 -85 0 -5 -14 -8
-30 -8 -17 0 -81 -11 -143 -24 -61 -13 -136 -27 -165 -30 l-53 -7 -72 78
c-134 147 -352 364 -432 433 -142 121 -309 222 -475 288 -41 17 -146 64 -234
106 -309 149 -372 168 -581 181 -175 11 -505 -26 -505 -56 0 -5 58 -9 130 -9
78 0 130 -4 130 -10 0 -18 -81 -51 -182 -74 -52 -12 -30 -26 30 -20 85 9 127
22 233 70 112 51 164 56 260 24 82 -28 211 -92 202 -100 -5 -4 -64 -12 -133
-19 -146 -14 -262 -38 -455 -92 -86 -24 -178 -43 -235 -47 l-95 -9 47 -22 c27
-12 48 -26 48 -31 0 -5 -12 -18 -26 -29 -15 -12 -22 -21 -16 -21 11 0 122 38
333 113 185 67 257 80 439 80 108 0 179 -6 234 -18 76 -16 161 -48 171 -65 8
-14 -101 -60 -200 -85 -50 -13 -172 -33 -271 -45 -98 -12 -190 -25 -204 -29
-24 -8 -24 -9 18 -26 23 -9 42 -21 42 -25 0 -4 -16 -20 -35 -34 -36 -28 -61
-63 -51 -73 10 -11 93 27 145 67 60 44 75 47 266 59 146 9 183 18 344 86 112
47 180 27 354 -104 114 -86 212 -171 212 -184 0 -5 -34 -22 -75 -36 -41 -15
-122 -49 -180 -76 -172 -78 -247 -90 -380 -59 -38 9 -156 18 -285 23 -154 7
-251 15 -323 30 -105 21 -241 27 -277 11 -13 -6 -15 -9 -5 -9 8 -1 54 -5 102
-10 94 -10 135 -29 144 -67 l6 -23 193 6 c218 7 313 -4 407 -44 32 -14 58 -29
58 -34 0 -20 -141 -50 -437 -94 -134 -19 -264 -39 -290 -45 -99 -21 -204 -64
-241 -98 -42 -38 -40 -38 88 7 50 18 105 31 134 31 l50 0 -30 -31 c-16 -18
-72 -63 -124 -102 -52 -39 -97 -72 -99 -74 -2 -2 -2 -6 2 -9 8 -8 130 62 201
116 133 101 155 108 378 120 196 11 249 22 423 88 71 28 133 48 137 45 11 -6
-174 -274 -205 -297 -17 -12 -73 -25 -186 -42 -105 -15 -175 -31 -202 -45 -38
-19 -208 -185 -218 -211 -7 -20 95 43 164 102 39 33 84 67 102 75 62 30 224
47 238 26 3 -5 -34 -43 -82 -84 -153 -130 -161 -151 -32 -86 141 70 234 155
415 380 206 256 261 311 354 357 68 33 154 36 215 7 50 -24 159 -131 212 -210
22 -33 72 -90 109 -126 38 -36 103 -97 144 -136 51 -50 70 -73 60 -76 -8 -3
-71 -18 -140 -35 -223 -53 -269 -77 -424 -224 -54 -51 -115 -102 -135 -112
-74 -40 -212 -32 -426 24 -100 26 -204 43 -245 38 l-35 -4 45 -12 c25 -8 147
-41 273 -74 125 -34 227 -64 227 -68 0 -11 -101 -57 -186 -85 -43 -14 -119
-32 -169 -40 -80 -14 -388 -31 -640 -36 -95 -2 -120 -14 -109 -51 3 -11 -19
-42 -67 -92 -39 -42 -66 -76 -59 -76 24 0 143 71 215 127 l70 55 167 -6 c92
-3 176 -10 188 -14 18 -7 12 -16 -67 -103 -49 -53 -103 -122 -122 -153 -34
-56 -105 -246 -95 -255 10 -11 80 71 155 181 74 109 95 135 103 127 2 -2 -11
-84 -29 -181 -17 -98 -30 -178 -28 -178 14 0 55 124 73 220 11 63 28 137 37
164 19 60 75 123 129 148 77 34 509 137 521 124 14 -14 -62 -103 -220 -258
-108 -107 -196 -204 -245 -271 -43 -58 -113 -154 -156 -214 -44 -59 -90 -123
-104 -140 -13 -18 -22 -33 -18 -33 3 0 37 27 75 60 96 83 99 82 81 -28 -14
-84 -46 -152 -114 -241 -31 -40 -54 -76 -52 -79 10 -9 95 49 124 85 52 67 61
87 127 268 73 200 119 286 196 364 51 51 135 108 144 99 7 -7 35 -227 35 -274
0 -35 -8 -52 -50 -104 -60 -75 -94 -129 -87 -137 9 -8 56 29 105 81 24 25 47
46 53 46 20 0 -20 -100 -102 -253 -17 -32 -29 -60 -26 -63 8 -9 134 121 171
177 67 102 79 186 54 395 -18 158 11 256 113 390 27 35 81 112 121 171 167
253 298 349 507 373 166 19 319 -16 645 -146 155 -62 229 -83 566 -159 91 -20
192 -46 225 -57 144 -49 304 -147 478 -291 412 -343 681 -689 792 -1019 36
-109 55 -218 38 -218 -6 0 -35 11 -66 25 -30 13 -138 54 -239 90 -452 162
-538 198 -738 304 -86 45 -160 91 -182 114 -51 52 -74 122 -93 274 -27 223
-67 334 -148 413 -88 84 -97 76 -37 -35 21 -41 34 -75 28 -75 -7 0 -43 22 -82
49 -83 57 -136 85 -136 73 0 -16 102 -106 178 -157 105 -72 116 -98 119 -287
2 -93 -1 -149 -8 -153 -5 -4 -60 18 -122 48 -247 122 -398 252 -475 409 -37
76 -48 116 -68 256 -3 17 -9 32 -15 32 -10 0 -6 -50 11 -140 5 -25 12 -78 16
-119 l7 -74 -34 23 c-44 31 -192 181 -240 245 -20 28 -60 92 -88 144 -53 97
-100 166 -108 158 -7 -8 26 -121 53 -181 14 -32 24 -59 22 -62 -3 -2 -26 10
-52 27 -27 16 -51 28 -53 25 -14 -13 71 -106 142 -157 49 -35 109 -91 156
-145 41 -49 125 -128 185 -177 60 -48 118 -97 129 -108 l20 -21 -40 7 c-22 4
-93 31 -158 62 -128 60 -197 77 -197 49 0 -13 -12 -16 -67 -17 -38 -1 -93 -4
-123 -8 -65 -9 -56 -12 105 -36 470 -70 723 -183 1185 -527 63 -47 127 -93
143 -103 15 -9 27 -21 27 -25 0 -4 -82 -10 -182 -13 -158 -4 -201 -9 -313 -36
-142 -34 -209 -38 -258 -17 -64 26 -131 110 -236 294 -23 39 -46 72 -51 72
-13 0 -15 7 25 -94 19 -49 35 -91 35 -93 0 -9 -37 1 -119 32 -49 19 -96 35
-103 35 -22 0 5 -18 57 -37 70 -27 182 -103 262 -178 l68 -64 -58 -1 c-69 0
-190 24 -261 51 -28 12 -118 53 -201 93 -166 80 -267 120 -287 114 -7 -3 12
-17 42 -33 70 -35 110 -63 110 -77 0 -7 -46 -9 -146 -5 -80 2 -142 1 -137 -3
13 -12 127 -38 243 -55 139 -21 211 -39 328 -85 151 -58 190 -65 362 -64 108
0 207 7 325 24 214 31 472 33 608 7 342 -68 746 -330 852 -552 79 -167 109
-329 109 -580 -1 -253 -28 -447 -110 -785 -63 -259 -111 -419 -319 -1055 -98
-300 -144 -342 -500 -445 -209 -60 -318 -99 -382 -135 -75 -42 -426 -310 -410
-313 29 -6 144 41 292 118 239 125 387 180 627 234 121 27 398 66 468 66 39 0
39 0 33 -32 -20 -105 -47 -145 -158 -238 -47 -39 -97 -89 -113 -113 -29 -43
-66 -126 -59 -133 2 -3 37 23 78 57 71 58 226 142 399 214 161 68 174 77 244
182 36 54 76 111 89 127 l24 29 49 -19 c52 -20 162 -124 380 -359 101 -109
188 -185 199 -174 11 12 -47 146 -98 226 -63 101 -103 182 -113 232 l-7 33 44
-7 c126 -20 251 -82 493 -245 89 -59 193 -125 231 -147 80 -47 192 -96 207
-91 5 2 -19 28 -54 58 -95 82 -130 119 -209 227 -40 54 -97 130 -126 169 -29
39 -53 74 -53 78 0 10 107 -4 192 -25 43 -11 151 -49 240 -86 224 -91 279
-111 383 -139 86 -23 255 -44 255 -31 0 10 -527 265 -670 324 -74 31 -198 82
-276 113 -188 77 -184 75 -299 181 -238 220 -326 381 -369 671 -27 178 -39
500 -33 905 5 332 8 404 26 499 53 292 160 504 409 815 420 525 884 799 1353
799 220 0 380 -42 649 -170 274 -130 416 -181 569 -201 130 -18 681 1 681 22
0 5 -100 9 -222 9 -307 0 -466 22 -669 91 -106 36 -253 119 -237 134 3 3 100
-6 214 -20 248 -32 515 -43 635 -26 70 10 455 98 468 108 22 15 -37 10 -196
-16 -104 -17 -233 -34 -286 -38 l-97 -6 0 46 0 46 -45 -20 c-101 -45 -265 -61
-400 -39 -89 14 -435 94 -435 101 0 23 552 197 807 254 105 24 202 49 215 57
21 12 15 13 -62 16 -61 3 -126 -4 -232 -24 -81 -15 -151 -25 -154 -21 -3 3 6
22 21 42 15 19 26 38 23 40 -4 5 -95 -46 -218 -122 -87 -53 -216 -107 -321
-132 -139 -34 -266 -41 -472 -25 -330 25 -499 14 -642 -41 -154 -59 -262 -94
-310 -101 l-50 -7 30 34 c17 19 51 52 76 73 73 62 345 232 465 292 107 53 115
55 225 64 63 5 182 10 264 10 83 0 197 7 255 15 58 8 153 20 213 27 162 18
134 32 -50 24 -87 -3 -223 -9 -303 -13 -148 -6 -300 2 -300 17 0 4 107 52 238
106 130 54 239 99 241 101 31 23 -115 -10 -372 -84 -49 -13 -91 -23 -94 -20
-2 3 7 26 22 52 15 25 25 48 22 52 -8 8 -67 -36 -102 -77 -59 -68 -92 -91
-228 -162 -621 -319 -1003 -618 -1379 -1079 -128 -157 -155 -186 -163 -177 -9
8 51 229 90 333 129 344 360 635 869 1094 147 132 289 216 418 246 35 8 149
21 253 30 274 23 466 65 570 123 28 16 77 45 109 65 118 73 165 62 393 -88
270 -179 361 -225 497 -250 182 -33 594 -43 612 -14 3 5 -26 9 -65 9 -91 0
-255 24 -407 60 -122 29 -254 76 -254 90 0 11 38 20 90 20 54 0 158 24 173 39
7 7 -39 10 -164 8 -165 -2 -177 -1 -227 22 -57 26 -136 83 -211 153 l-45 43
44 7 c112 17 330 4 490 -29 130 -26 234 -65 455 -168 55 -26 138 -65 185 -87
166 -78 400 -159 400 -138 0 17 -179 118 -423 239 -137 68 -246 125 -243 128
22 22 410 6 500 -21 26 -8 100 -44 166 -80 148 -82 329 -145 305 -106 -3 6
-17 10 -30 10 -28 0 -120 47 -225 115 l-75 48 49 22 49 21 -224 13 c-384 21
-632 48 -984 107 -379 64 -531 58 -804 -31 -165 -53 -296 -87 -324 -83 -15 2
2 22 78 88 272 238 526 375 786 425 96 18 333 20 411 4 64 -14 170 -65 299
-147 287 -181 428 -220 701 -193 114 12 130 11 218 -8 96 -21 165 -27 156 -13
-2 4 -25 18 -50 31 -25 12 -46 24 -46 26 0 9 130 43 208 55 45 7 85 16 88 21
8 13 -45 11 -127 -6 -75 -15 -381 -45 -458 -45 -24 0 -40 4 -36 9 10 17 160
70 256 90 l94 21 -70 -4 c-38 -3 -150 -25 -248 -50 -197 -51 -239 -55 -318
-27 -95 32 -349 167 -349 185 0 5 48 6 118 0 125 -9 288 -10 547 -3 88 2 221
2 295 1 127 -3 144 -1 275 33 77 19 154 35 172 35 17 0 35 5 38 10 10 16 -57
12 -190 -10 -121 -20 -335 -27 -335 -12 0 10 30 24 108 54 28 11 52 24 52 29
0 6 -8 8 -17 5 -10 -3 -99 -21 -198 -40 -193 -37 -404 -61 -418 -47 -12 12 76
64 159 94 38 13 146 41 239 62 94 20 172 39 175 42 3 3 -56 4 -130 2 -74 -1
-167 1 -206 5 -80 10 -74 12 -244 -90 -58 -34 -134 -72 -169 -84 -58 -19 -72
-20 -155 -10 -123 14 -369 59 -379 69 -9 9 -16 7 438 166 198 70 367 131 375
136 44 25 -149 -8 -289 -51 -150 -45 -171 -50 -171 -42 0 3 30 34 68 69 50 47
60 60 40 53 -51 -17 -113 -52 -190 -106 -149 -106 -271 -144 -513 -164 -407
-33 -500 -57 -655 -169 -89 -64 -221 -144 -227 -137 -17 17 97 204 168 275 59
58 111 79 251 102 109 18 203 45 238 70 11 7 -27 8 -130 4 l-145 -6 40 36 c44
40 220 183 256 209 39 27 14 28 -49 2 -126 -53 -320 -174 -430 -268 -68 -58
-128 -95 -139 -85 -3 4 1 26 10 49 17 44 45 86 130 198 26 35 46 65 43 67 -11
11 -69 -32 -122 -90 -76 -83 -128 -172 -160 -272 -27 -88 -46 -122 -116 -214
-28 -37 -61 -99 -84 -158 -34 -87 -45 -105 -108 -168 -131 -131 -246 -190
-396 -204 -47 -4 -87 -7 -88 -5 -9 6 12 46 73 139 174 264 256 531 227 734
-15 105 -47 193 -121 334 -33 65 -61 124 -61 131 0 28 94 96 220 160 175 89
180 89 298 32 262 -125 444 -148 867 -111 196 17 251 13 327 -26 97 -49 150
-60 488 -94 326 -34 668 -48 645 -27 -6 5 -125 32 -265 61 -140 29 -262 55
-270 57 -22 8 -1 17 99 43 69 19 104 22 202 19 187 -5 146 18 -51 28 -91 6
-120 3 -220 -20 -139 -32 -266 -43 -337 -27 -58 12 -143 49 -143 61 0 12 81
36 195 59 159 32 261 43 400 44 191 3 252 -16 468 -145 67 -40 156 -87 197
-105 78 -33 164 -57 155 -43 -3 5 -55 39 -115 76 -61 36 -110 70 -110 75 0 5
38 9 85 9 47 0 85 4 85 9 0 10 -44 21 -187 45 -108 19 -164 38 -215 72 -65 42
-52 47 100 41 185 -7 403 17 388 42 -3 5 -54 11 -113 15 -60 4 -123 9 -141 13
l-33 5 68 46 c88 60 66 65 -69 17 -96 -34 -115 -37 -273 -46 -210 -11 -326
-23 -525 -55 -157 -25 -416 -70 -457 -79 -13 -3 -23 -1 -23 6 0 19 92 140 171
223 128 135 196 157 413 132 255 -29 344 -18 551 71 l130 56 140 8 c77 4 152
8 168 8 42 1 32 17 -20 32 -30 9 -97 14 -180 14 l-132 0 32 33 c72 76 250 182
305 182 12 0 22 5 22 10 0 26 -110 -5 -230 -65 -47 -24 -128 -77 -180 -119
-102 -81 -153 -105 -276 -131 -150 -31 -421 -32 -411 -2 8 25 186 103 422 184
72 25 132 47 134 49 14 13 -18 12 -114 -6 -158 -29 -154 -31 -102 43 61 86 64
91 41 79 -11 -6 -82 -57 -158 -115 -97 -73 -187 -130 -296 -187 -172 -90 -289
-169 -421 -284 -191 -166 -284 -222 -407 -246 -80 -16 -333 -7 -422 14 -87 22
-280 98 -280 111 0 11 48 41 204 126 128 70 179 116 262 240 82 121 126 161
202 183 206 61 274 87 422 161 397 198 506 222 1065 235 282 6 387 12 443 25
176 39 153 54 -47 31 -75 -8 -158 -17 -186 -20 -62 -6 -277 12 -289 24 -5 5
10 13 35 20 200 52 433 151 504 213 l40 36 -165 -60 c-91 -32 -171 -59 -177
-59 -30 0 0 39 72 94 21 17 34 31 28 33 -18 6 -73 -25 -143 -82 -84 -68 -165
-108 -292 -144 -93 -27 -293 -69 -408 -85 l-45 -7 58 59 c79 80 139 114 313
176 155 56 248 95 240 103 -4 4 -221 -40 -265 -54 -31 -9 95 97 146 124 51 27
72 50 36 39 -10 -3 -31 -8 -48 -12 -66 -15 -219 -105 -423 -251 -295 -210
-466 -311 -627 -370 -78 -28 -215 -61 -220 -53 -14 23 267 581 315 625 12 11
49 19 115 25 130 13 154 20 345 107 177 81 329 127 464 139 42 4 79 10 81 15
6 9 -52 18 -135 22 l-55 2 72 47 c68 45 228 186 219 195 -2 2 -28 -11 -57 -30
-98 -61 -202 -115 -314 -160 -122 -50 -253 -92 -261 -84 -8 8 22 62 72 130 85
115 25 81 -130 -76 -71 -71 -124 -116 -154 -129 -52 -23 -162 -37 -162 -20 0
20 54 137 89 191 72 115 141 163 386 271 155 69 196 90 190 101 -3 4 -85 -18
-182 -47 -97 -30 -181 -53 -186 -51 -13 4 53 89 138 177 64 67 113 135 103
145 -2 2 -34 -14 -72 -36 -37 -21 -71 -39 -76 -39 -23 0 -20 67 4 136 30 83
31 91 10 74 -32 -28 -65 -101 -85 -191 -34 -158 -104 -283 -228 -403 l-50 -49
-8 29 c-4 16 -8 79 -7 139 0 90 4 120 22 165 23 55 62 197 62 222 0 20 -64
-74 -108 -160 -59 -112 -74 -201 -70 -397 l3 -160 -46 -95 c-25 -52 -83 -155
-128 -228 l-82 -132 -31 17 c-74 43 -95 88 -137 285 -36 168 -28 225 46 334
62 93 88 153 117 268 28 115 48 146 130 208 75 58 150 133 145 146 -2 5 -51
-21 -108 -59 -57 -39 -106 -68 -109 -65 -11 12 12 81 59 176 27 57 48 105 45
107 -9 9 -45 -17 -74 -54 -48 -62 -68 -110 -127 -308 -63 -211 -101 -298 -158
-359 l-38 -41 5 165 c6 203 17 259 74 369 82 159 93 182 117 247 15 40 20 64
13 64 -7 0 -33 -22 -59 -49 -34 -36 -69 -94 -129 -215 -46 -91 -87 -166 -91
-166 -17 0 -24 56 -24 185 0 129 0 130 41 230 23 55 47 123 54 150 6 28 14 57
16 65 6 24 -23 -18 -80 -114 -29 -50 -58 -92 -63 -93 -7 -3 -14 28 -18 84 -8
118 -10 123 -24 88 -33 -79 -35 -145 -15 -392 7 -85 -6 -95 -51 -41 -59 70
-111 235 -121 378 -3 47 -8 96 -10 110 -5 24 -6 24 -17 5 -7 -13 -11 -83 -12
-190 0 -141 3 -180 19 -225 29 -86 70 -151 136 -216 33 -32 64 -72 70 -89 11
-36 45 -293 60 -460 32 -355 66 -479 167 -600 27 -33 58 -74 68 -91 l18 -32
-33 -58 c-37 -67 -136 -216 -187 -284 -72 -94 -316 -330 -342 -330 -11 0 -24
205 -25 384 l-1 130 95 73 c52 41 112 91 133 111 39 37 102 152 96 171 -2 6
-40 -23 -84 -65 -102 -96 -217 -176 -231 -161 -14 14 84 336 142 469 23 50 34
91 33 120 0 41 -2 39 -33 -52 -19 -52 -61 -149 -95 -214 -86 -168 -151 -392
-151 -530 0 -71 -13 -73 -57 -9 -49 69 -63 115 -64 208 -1 89 -14 184 -21 165
-4 -8 -16 -59 -29 -114 -27 -121 -24 -138 60 -339 89 -214 94 -232 95 -329 1
-80 -1 -89 -29 -129 -19 -26 -53 -55 -90 -76 -81 -45 -266 -117 -274 -106 -4
4 -13 26 -20 48 -7 22 -38 98 -68 169 -105 248 -115 297 -93 449 25 169 73
249 272 452 175 177 226 240 286 353 77 146 132 357 132 512 0 75 -12 69 -29
-15 -36 -177 -143 -423 -241 -555 -66 -89 -174 -190 -202 -190 -26 0 11 112
104 315 61 131 78 180 94 265 8 45 4 40 -44 -52 -23 -42 -77 -134 -120 -205
-102 -164 -125 -210 -152 -308 -30 -107 -61 -165 -125 -235 -59 -65 -74 -89
-100 -170 -10 -30 -25 -71 -33 -90 -17 -41 -20 -37 -56 75 -56 173 -70 332
-40 448 37 143 125 265 354 492 105 103 170 176 186 207 29 57 60 172 69 253
9 91 22 146 76 311 56 175 79 276 78 342 l-1 47 -13 -35 c-7 -19 -14 -45 -14
-56 -1 -12 -8 -24 -16 -28 -11 -4 -23 12 -45 62 -17 37 -42 90 -55 117 l-25
50 4 -55 c3 -30 12 -104 20 -165 11 -77 13 -128 7 -171 -9 -61 -34 -124 -50
-124 -11 0 -95 181 -126 274 l-26 78 15 173 c17 189 21 355 8 355 -5 0 -14
-57 -21 -127 -16 -170 -32 -273 -41 -273 -13 0 -39 74 -50 142 -5 35 -10 155
-10 268 0 119 -4 200 -9 195 -26 -28 -45 -134 -45 -250 1 -130 20 -234 88
-475 20 -69 36 -129 36 -134 0 -5 -35 25 -79 67 -43 42 -82 77 -85 77 -19 0
64 -126 125 -191 131 -137 153 -193 154 -389 0 -183 -4 -190 -232 -402 l-41
-39 -30 43 c-79 116 -194 356 -241 503 -62 192 -62 249 -3 540 32 155 37 199
37 316 l0 136 -42 84 c-23 47 -47 98 -53 113 -21 55 -21 17 -1 -66 50 -203 51
-299 2 -485 -49 -187 -84 -303 -92 -303 -11 0 -80 94 -104 140 -32 61 -30 141
5 285 32 132 49 235 36 223 -4 -3 -13 -35 -21 -71 -14 -68 -44 -135 -68 -155
-12 -10 -16 -7 -21 19 -3 17 -6 46 -6 63 0 40 -28 136 -39 136 -4 0 -11 -62
-15 -137 -11 -224 6 -297 125 -533 32 -63 84 -189 114 -280 35 -102 89 -229
141 -333 100 -201 118 -256 112 -347 -5 -70 -11 -83 -89 -186 -64 -86 -93
-152 -128 -292 -30 -121 -45 -162 -59 -162 -32 0 -417 293 -439 333 -26 48
-21 153 12 257 32 98 63 163 134 275 64 99 91 171 98 256 6 73 -4 179 -17 179
-4 0 -11 -30 -15 -67 -10 -103 -32 -189 -65 -257 -30 -61 -85 -134 -94 -125
-10 10 -56 401 -56 473 0 42 13 134 30 218 44 217 66 458 41 458 -11 0 -17
-30 -26 -120 -11 -107 -63 -339 -90 -398 -23 -51 -24 -60 -18 -172 l6 -118
-25 5 c-38 7 -42 -12 -14 -60 62 -106 73 -220 37 -404 -21 -106 -60 -218 -76
-218 -17 0 -93 163 -130 275 -67 208 -102 455 -91 640 14 229 55 389 147 572
61 122 103 228 89 228 -5 0 -35 -34 -66 -75 -31 -41 -61 -72 -67 -68 -10 6 -3
232 9 287 11 48 -12 22 -37 -42 -18 -47 -23 -86 -29 -222 -6 -150 -10 -177
-44 -295 -135 -467 -136 -834 -1 -1160 90 -220 202 -361 445 -563 264 -219
361 -325 434 -471 42 -84 72 -169 63 -177 -7 -8 -103 16 -174 43 -32 12 -50
28 -75 67 -26 40 -173 223 -198 246 -3 3 -31 33 -62 68 -65 70 -148 145 -155
139 -2 -3 17 -38 42 -77 26 -40 49 -79 52 -86 8 -22 -41 -17 -113 12 -36 14
-68 24 -70 21 -11 -11 82 -71 157 -103 94 -40 130 -63 159 -104 28 -39 52 -98
42 -104 -16 -9 -180 61 -247 106 -201 136 -354 365 -355 530 0 20 -4 40 -10
43 -15 10 -12 -79 6 -147 8 -33 40 -114 71 -180 30 -65 52 -122 49 -125 -16
-16 -118 21 -190 69 -42 28 -79 48 -82 45 -10 -10 55 -95 88 -115 18 -11 79
-34 136 -52 82 -25 108 -37 130 -63 103 -120 180 -160 444 -226 226 -58 285
-78 364 -130 82 -52 140 -122 200 -237 61 -117 89 -201 80 -238 -10 -40 -59
-89 -151 -152 -96 -65 -97 -65 -215 -11 -487 223 -999 138 -1245 -208 -60 -83
-100 -180 -124 -302 -21 -102 -28 -247 -13 -257 5 -3 16 32 26 77 63 301 170
483 346 588 395 234 1002 74 1196 -316 127 -257 58 -572 -201 -913 -141 -186
-253 -288 -612 -560 -272 -206 -399 -315 -498 -428 -137 -157 -258 -343 -316
-484 -48 -119 -97 -220 -106 -220 -5 0 -38 57 -73 126 -137 265 -394 559 -760
869 -412 351 -537 488 -656 726 -130 260 -181 598 -124 834 7 28 32 91 55 140
71 148 197 257 360 312 74 26 91 28 245 27 150 0 173 -3 253 -27 149 -46 274
-117 383 -219 168 -158 262 -340 301 -588 23 -147 37 -128 30 42 -10 270 -107
481 -301 658 -143 130 -370 236 -588 274 -43 8 -81 16 -83 18 -3 2 33 117 79
254 63 188 87 277 100 364 31 214 47 259 113 323 126 123 310 213 638 313 181
56 328 118 360 155 10 10 13 19 7 19 -6 0 -91 -18 -189 -39 -170 -38 -208 -45
-226 -42 -12 2 30 58 98 131 71 76 118 150 184 292 47 100 160 389 186 476 12
39 12 42 -3 30 -33 -28 -104 -152 -181 -317 -43 -95 -99 -207 -123 -249 -43
-77 -143 -192 -167 -192 -10 0 -12 35 -9 155 2 99 -1 154 -7 152 -12 -4 -20
-48 -34 -196 -19 -185 -44 -225 -207 -325 -111 -68 -302 -161 -311 -152 -22
21 67 208 223 471 132 223 135 227 216 291 117 93 108 81 321 429 251 408 403
707 395 774 -2 21 -15 5 -72 -92 -38 -65 -74 -121 -79 -124 -10 -6 -8 36 10
230 9 104 -10 82 -46 -50 -18 -65 -45 -167 -62 -228 -35 -128 -104 -276 -159
-337 -21 -24 -40 -41 -43 -38 -3 3 3 91 13 195 16 174 17 206 6 194 -2 -2 -29
-116 -59 -253 -35 -157 -66 -269 -83 -304 -27 -55 -135 -172 -159 -172 -10 0
-14 42 -17 183 -9 359 14 501 115 706 67 134 128 229 197 304 55 60 87 82 155
103 l40 13 -35 2 c-19 1 -41 3 -49 3 -28 2 -22 26 33 144 31 65 56 129 56 142
0 34 -12 16 -45 -65 -42 -103 -175 -293 -233 -331 l-24 -16 7 131 c4 72 4 131
1 131 -4 0 -18 -24 -31 -52 -17 -39 -27 -84 -34 -168 -11 -130 -25 -177 -80
-270 -132 -223 -154 -314 -166 -680 -7 -206 -23 -317 -62 -429 -29 -86 -160
-351 -172 -351 -19 0 -133 84 -164 121 -85 98 -115 208 -83 293 10 25 51 86
92 137 73 92 95 131 52 93 -75 -67 -146 -124 -153 -124 -12 0 4 113 24 173 29
84 57 132 161 282 116 167 152 229 180 314 42 127 21 112 -99 -67 -63 -94
-119 -168 -124 -165 -15 9 0 114 32 215 36 117 41 138 31 138 -4 0 -13 -12
-18 -27 -6 -16 -27 -64 -46 -108 -25 -57 -42 -118 -56 -205 -19 -109 -27 -136
-68 -210 -98 -181 -115 -231 -127 -392 -10 -127 -23 -118 -82 56 -58 174 -55
266 18 501 53 168 105 276 177 367 46 57 60 84 65 119 3 26 26 95 51 155 52
128 73 223 86 394 5 69 12 135 16 148 4 13 2 22 -4 22 -6 0 -13 -8 -16 -17z
m-1836 -5018 c102 -25 199 -50 217 -56 40 -13 56 -47 82 -174 11 -55 32 -138
46 -184 14 -46 23 -87 20 -90 -8 -8 -187 37 -317 80 -226 75 -429 178 -553
282 -50 43 -131 144 -122 154 4 3 59 14 124 24 175 28 276 20 503 -36z"/>
</g>
</svg>
